<svg xmlns="http://www.w3.org/2000/svg" viewBox="-0.5 -0.5 16 16" fill="currentColor"
    aria-hidden="true" id="Bars-3--Streamline-Heroicons.svg" height="16" width="16">
    <desc>Bars 3 Streamline Icon: https://streamlinehq.com</desc>
    <path fill-rule="evenodd"
        d="M0.15 3.2125C0.15 2.87425 0.42424999999999996 2.6 0.7625 2.6H14.2375C14.709000000000001 2.6 15.0036875 3.1104375 14.767937499999999 3.51875C14.6585 3.70825 14.4563125 3.825 14.2375 3.825H0.7625C0.42424999999999996 3.825 0.15 3.55075 0.15 3.2125ZM0.15 7.5C0.15 7.16175 0.42424999999999996 6.887499999999999 0.7625 6.887499999999999H14.2375C14.709000000000001 6.887499999999999 15.0036875 7.3979375 14.767937499999999 7.80625C14.6585 7.99575 14.4563125 8.1125 14.2375 8.1125H0.7625C0.4241875 8.1125 0.15 7.8383125 0.15 7.5ZM0.15 11.7875C0.15 11.4491875 0.4241875 11.174999999999999 0.7625 11.174999999999999H14.2375C14.709000000000001 11.174999999999999 15.0036875 11.685437499999999 14.767937499999999 12.09375C14.6585 12.283249999999999 14.4563125 12.4 14.2375 12.4H0.7625C0.4241875 12.4 0.15 12.125812499999999 0.15 11.7875Z"
        clip-rule="evenodd" stroke-width="1"></path>
</svg>